<svg width="33" height="24" viewBox="0 0 33 24" fill="none" xmlns="http://www.w3.org/2000/svg">
<path d="M32.5848 8.48737L31.962 12.9196C31.9452 13.034 31.9032 13.1431 31.8392 13.2383C31.7752 13.3336 31.6909 13.4125 31.5928 13.4689C31.4933 13.5245 31.3828 13.556 31.2698 13.5608C31.1569 13.5656 31.0445 13.5436 30.9413 13.4967L24.9816 10.6607L23.876 18.5278C23.7529 19.4044 23.3808 20.2247 22.8069 20.885C22.2329 21.5453 21.4829 22.016 20.6517 22.2374C19.8205 22.4588 18.9454 22.4211 18.1371 22.1291C17.3287 21.837 16.6235 21.3037 16.1105 20.5965C15.5975 19.8894 15.2998 19.0402 15.255 18.1564C15.2103 17.2726 15.4205 16.3938 15.859 15.6311C16.2976 14.8685 16.9449 14.2562 17.719 13.8718C18.4931 13.4874 19.3592 13.3482 20.2079 13.4716C21.2657 13.622 22.2291 14.1755 22.909 15.0233L24.3142 5.02321C24.331 4.90875 24.373 4.79969 24.437 4.70444C24.501 4.6092 24.5853 4.5303 24.6833 4.47385C24.7829 4.41823 24.8934 4.38681 25.0063 4.38201C25.1193 4.3772 25.2317 4.39913 25.3349 4.44611L32.1752 7.70227C32.3156 7.77079 32.4311 7.88386 32.5048 8.02505C32.5784 8.16624 32.6065 8.32819 32.5848 8.48737Z" fill="black"/>
<path d="M0 2H26.7142" stroke="black" stroke-width="3"/>
<path d="M0 9.85718H18.8571" stroke="black" stroke-width="3"/>
<path d="M0 17.7142H14.1428" stroke="black" stroke-width="3"/>
</svg>
