<svg width="24" height="24" viewBox="0 0 24 24" fill="none" xmlns="http://www.w3.org/2000/svg">
<g clip-path="url(#clip0_18_504)">
<path d="M9.31701 9.451C9.33544 9.48147 9.36021 9.50762 9.38965 9.52766C9.41908 9.5477 9.45249 9.56117 9.4876 9.56715C9.5227 9.57313 9.55868 9.57147 9.59309 9.5623C9.6275 9.55313 9.65953 9.53666 9.68701 9.514L9.70201 9.502C10.092 9.177 10.443 8.842 10.773 8.485C13.982 5.002 12.108 0.725998 12.093 0.685998C12.0486 0.584374 12.0392 0.470865 12.0664 0.363334C12.0935 0.255802 12.1557 0.160351 12.243 0.0919982C12.334 0.0268661 12.4445 -0.00534997 12.5563 0.000647508C12.6681 0.00664499 12.7745 0.050499 12.858 0.124998C23.733 10.239 20.853 17.943 20.643 18.462C19.773 21.603 16.308 23.876 12.199 23.992C12.061 24 11.957 24 11.836 24C6.98401 24 2.85901 21.011 2.85901 17.193V17.133C2.85901 11.836 7.65401 6.611 7.86801 6.389C7.93168 6.31604 8.0177 6.26619 8.11265 6.2472C8.2076 6.22821 8.30617 6.24115 8.39301 6.284C8.57301 6.36 8.69001 6.539 8.68401 6.735C8.64101 7.771 8.85101 8.67 9.31501 9.435V9.45L9.31701 9.451Z" fill="black"/>
</g>
<defs>
<clipPath id="clip0_18_504">
<rect width="24" height="24" fill="white"/>
</clipPath>
</defs>
</svg>
