<svg width="24" height="24" viewBox="0 0 24 24" fill="none" xmlns="http://www.w3.org/2000/svg">
<path d="M21.75 11.625H17.5312C18.3271 10.537 18.7542 9.223 18.75 7.875C18.7475 6.18501 18.0751 4.56494 16.8801 3.36993C15.6851 2.17493 14.065 1.50248 12.375 1.5C12.1761 1.5 11.9853 1.57902 11.8447 1.71967C11.704 1.86032 11.625 2.05109 11.625 2.25V6.46875C10.537 5.6729 9.223 5.24585 7.875 5.25C6.18501 5.25248 4.56494 5.92493 3.36993 7.11993C2.17493 8.31494 1.50248 9.93501 1.5 11.625C1.5 11.8239 1.57902 12.0147 1.71967 12.1553C1.86032 12.296 2.05109 12.375 2.25 12.375H6.46875C5.6729 13.463 5.24585 14.777 5.25 16.125C5.25248 17.815 5.92493 19.4351 7.11993 20.6301C8.31494 21.8251 9.93501 22.4975 11.625 22.5C11.8239 22.5 12.0147 22.421 12.1553 22.2803C12.296 22.1397 12.375 21.9489 12.375 21.75V17.5312C13.463 18.3271 14.777 18.7542 16.125 18.75C17.815 18.7475 19.4351 18.0751 20.6301 16.8801C21.8251 15.6851 22.4975 14.065 22.5 12.375C22.5 12.1761 22.421 11.9853 22.2803 11.8447C22.1397 11.704 21.9489 11.625 21.75 11.625ZM7.875 6.75C8.59169 6.74703 9.30006 6.90366 9.94868 7.20852C10.5973 7.51337 11.1699 7.95881 11.625 8.5125V10.875H3.05625C3.23702 9.7264 3.82161 8.67997 4.7049 7.92384C5.5882 7.16771 6.71227 6.75148 7.875 6.75ZM16.125 17.25C15.4083 17.253 14.6999 17.0963 14.0513 16.7915C13.4027 16.4866 12.8301 16.0412 12.375 15.4875V13.125H20.9437C20.763 14.2736 20.1784 15.32 19.2951 16.0762C18.4118 16.8323 17.2877 17.2485 16.125 17.25Z" fill="black"/>
</svg>
